<mxfile host="app.diagrams.net" modified="2020-11-25T15:48:25.359Z" agent="5.0 (X11; CrOS x86_64 13310.59.0) AppleWebKit/537.36 (KHTML, like Gecko) Chrome/85.0.4183.84 Safari/537.36" etag="m-JNq-CIB1lZeO5Da725" version="13.10.1" type="github">
  <diagram id="OQ10ZAyFoiUq_mqqNgxz" name="Page-1">
    <mxGraphModel dx="868" dy="474" grid="1" gridSize="10" guides="1" tooltips="1" connect="1" arrows="1" fold="1" page="1" pageScale="1" pageWidth="827" pageHeight="1169" math="0" shadow="0">
      <root>
        <mxCell id="0" />
        <mxCell id="1" parent="0" />
        <mxCell id="9qqutHxkAcuJtSDn3JXS-1" value="START" style="rounded=1;whiteSpace=wrap;html=1;" vertex="1" parent="1">
          <mxGeometry x="376" y="20" width="76" height="30" as="geometry" />
        </mxCell>
        <mxCell id="9qqutHxkAcuJtSDn3JXS-3" value="" style="endArrow=classic;html=1;" edge="1" parent="1">
          <mxGeometry width="50" height="50" relative="1" as="geometry">
            <mxPoint x="414" y="50" as="sourcePoint" />
            <mxPoint x="414" y="90" as="targetPoint" />
          </mxGeometry>
        </mxCell>
        <mxCell id="9qqutHxkAcuJtSDn3JXS-4" value="&lt;span style=&quot;font-size: 14px&quot;&gt;Utmatning&lt;br&gt;&quot;Ange ett nummer&quot;&lt;br&gt;&lt;/span&gt;" style="shape=parallelogram;perimeter=parallelogramPerimeter;whiteSpace=wrap;html=1;fixedSize=1;" vertex="1" parent="1">
          <mxGeometry x="337" y="90" width="154" height="50" as="geometry" />
        </mxCell>
        <mxCell id="9qqutHxkAcuJtSDn3JXS-5" value="&lt;span style=&quot;font-size: 16px&quot;&gt;Inmatning&lt;br&gt;&lt;br&gt;&lt;/span&gt;" style="rounded=0;whiteSpace=wrap;html=1;" vertex="1" parent="1">
          <mxGeometry x="354" y="160" width="120" height="60" as="geometry" />
        </mxCell>
        <mxCell id="9qqutHxkAcuJtSDn3JXS-6" value="" style="endArrow=classic;html=1;" edge="1" parent="1">
          <mxGeometry width="50" height="50" relative="1" as="geometry">
            <mxPoint x="414" y="140" as="sourcePoint" />
            <mxPoint x="414" y="160" as="targetPoint" />
          </mxGeometry>
        </mxCell>
      </root>
    </mxGraphModel>
  </diagram>
</mxfile>
